HIERARCHY
ROOT joint_Root
{
	OFFSET 0.0 0.0 0.0
	CHANNELS 6 Xposition Yposition Zposition Zrotation Xrotation Yrotation 
	JOINT Hips
	{
		OFFSET -0.726466 93.3139 -2.00062
		CHANNELS 6 Xposition Yposition Zposition Zrotation Xrotation Yrotation 
		JOINT Spine
		{
			OFFSET 15.7357 0.0 0.0
			CHANNELS 6 Xposition Yposition Zposition Zrotation Xrotation Yrotation 
			JOINT Chest
			{
				OFFSET 8.98455 -0.406207 0.0
				CHANNELS 6 Xposition Yposition Zposition Zrotation Xrotation Yrotation 
				JOINT Neck
				{
					OFFSET 16.3773 0.0 0.0
					CHANNELS 6 Xposition Yposition Zposition Zrotation Xrotation Yrotation 
					JOINT Head
					{
						OFFSET 6.45672 0.0 0.0
						CHANNELS 6 Xposition Yposition Zposition Zrotation Xrotation Yrotation 
						End Site
						{
							OFFSET 0.0 0.0 0.0
						}
					}
				}
				JOINT Shoulder_L
				{
					OFFSET 12.9942 -0.242716 4.98039
					CHANNELS 6 Xposition Yposition Zposition Zrotation Xrotation Yrotation 
					JOINT UpperArm_L
					{
						OFFSET 5.34809 0.0 0.0
						CHANNELS 6 Xposition Yposition Zposition Zrotation Xrotation Yrotation 
						JOINT LowerArm_L
						{
							OFFSET 24.3286 1.87007e-05 0.0
							CHANNELS 6 Xposition Yposition Zposition Zrotation Xrotation Yrotation 
							JOINT Hand_L
							{
								OFFSET 22.2916 0.0 0.0
								CHANNELS 6 Xposition Yposition Zposition Zrotation Xrotation Yrotation 
								End Site
								{
									OFFSET 0.0 0.0 0.0
								}
							}
						}
					}
				}
				JOINT Shoulder_R
				{
					OFFSET 12.9945 -0.242716 -4.98039
					CHANNELS 6 Xposition Yposition Zposition Zrotation Xrotation Yrotation 
					JOINT UpperArm_R
					{
						OFFSET -5.34813 0.0 0.0
						CHANNELS 6 Xposition Yposition Zposition Zrotation Xrotation Yrotation 
						JOINT LowerArm_R
						{
							OFFSET -24.3289 0.000322201 0.0
							CHANNELS 6 Xposition Yposition Zposition Zrotation Xrotation Yrotation 
							JOINT Hand_R
							{
								OFFSET -22.2915 -0.000108084 0.0
								CHANNELS 6 Xposition Yposition Zposition Zrotation Xrotation Yrotation 
								End Site
								{
									OFFSET 0.0 0.0 0.0
								}
							}
						}
					}
				}
			}
		}
		JOINT UpperLeg_L
		{
			OFFSET -2.19248 -6.46944 0.0
			CHANNELS 6 Xposition Yposition Zposition Zrotation Xrotation Yrotation 
			JOINT LowerLeg_L
			{
				OFFSET 39.0811 0.0 -1.23785e-05
				CHANNELS 6 Xposition Yposition Zposition Zrotation Xrotation Yrotation 
				JOINT Foot_L
				{
					OFFSET 40.9854 0.0 -1.26872e-05
					CHANNELS 6 Xposition Yposition Zposition Zrotation Xrotation Yrotation 
					JOINT Toes_L
					{
						OFFSET 11.7543 0.0 0.0
						CHANNELS 6 Xposition Yposition Zposition Zrotation Xrotation Yrotation 
						End Site
						{
							OFFSET 0.0 0.0 0.0
						}
					}
				}
			}
		}
		JOINT UpperLeg_R
		{
			OFFSET -2.19251 6.46944 0.0
			CHANNELS 6 Xposition Yposition Zposition Zrotation Xrotation Yrotation 
			JOINT LowerLeg_R
			{
				OFFSET -39.0811 -0.00228153 -0.0401928
				CHANNELS 6 Xposition Yposition Zposition Zrotation Xrotation Yrotation 
				JOINT Foot_R
				{
					OFFSET -40.9854 0.0 0.0
					CHANNELS 6 Xposition Yposition Zposition Zrotation Xrotation Yrotation 
					JOINT Toes_R
					{
						OFFSET -11.7543 0.0 0.0
						CHANNELS 6 Xposition Yposition Zposition Zrotation Xrotation Yrotation 
						End Site
						{
							OFFSET 0.0 0.0 0.0
						}
					}
				}
			}
		}
	}
}
MOTION
Frames:	4
Frame Time:	0.0333333
0.000000 0.000000 0.000000 0.000000 0.000000 -0.000000 -0.775658 91.975800 1.603800 88.096300 -0.297371 4.837220 15.735700 0.000005 -0.000001 79.778100 86.942900 -79.472000 8.984550 -0.406207 -0.000000 -1.745850 -1.110200 0.595211 16.377300 -0.000001 -0.000001 -0.589190 -2.329520 0.212513 6.456720 -0.000001 -0.000000 -1.045250 -2.861980 1.382690 12.994200 -0.242716 4.980390 -86.334000 -7.754290 -64.598500 5.348090 -0.000007 -0.000001 -50.673100 -46.803300 -44.839200 24.328600 0.000019 0.000005 -1.857950 -3.284570 -29.517500 22.291600 -0.000001 0.000005 16.815100 5.517640 -7.262550 12.994500 -0.242716 -4.980390 90.922200 -2.102090 -66.306600 -5.348130 -0.000001 -0.000004 -59.271800 -48.653500 -61.464400 -24.328900 0.000322 -0.000009 -1.060400 -2.657060 -21.746300 -22.291500 -0.000108 -0.000004 14.705300 5.159700 3.710090 -2.192480 -6.469440 -0.000000 -169.253000 -17.138100 -1.706650 39.081100 -0.000007 -0.000012 -0.192160 0.459294 22.703800 40.985400 -0.000006 -0.000013 -6.565120 -1.518330 -64.062000 11.754300 -0.000000 0.000003 -0.000123 -0.001229 -16.624500 -2.192510 6.469440 -0.000001 173.004000 21.237300 -178.838000 -39.081100 -0.002282 -0.040193 -0.021270 0.067819 19.931300 -40.985400 0.000008 0.000006 -3.104350 1.762080 -63.799800 -11.754300 -0.000006 -0.000006 -0.004332 -0.054853 -18.804600
0.000000 0.000000 0.000000 0.000000 0.000000 -0.000000 -0.747305 91.948900 1.738020 88.136400 -0.469801 4.922450 15.735700 0.000005 -0.000001 79.422200 87.008600 -79.082000 8.984550 -0.406207 -0.000000 -1.881600 -1.126620 0.661760 16.377300 -0.000001 -0.000001 -0.523916 -2.178740 0.120031 6.456720 -0.000001 -0.000000 -0.800225 -2.690620 1.302940 12.994200 -0.242716 4.980390 -86.248700 -7.892100 -64.474800 5.348090 -0.000007 -0.000001 -52.060500 -47.316900 -47.213700 24.328600 0.000019 0.000005 -1.724070 -3.131360 -28.856300 22.291600 -0.000001 0.000005 17.116100 5.509750 -6.932700 12.994500 -0.242716 -4.980390 90.989800 -2.257820 -66.319300 -5.348130 -0.000001 -0.000004 -60.271900 -48.451800 -63.796400 -24.328900 0.000322 -0.000009 -1.181720 -2.955870 -21.784500 -22.291500 -0.000108 -0.000004 14.959700 5.161730 3.661390 -2.192480 -6.469440 -0.000000 -169.245000 -17.142100 -1.500150 39.081100 -0.000007 -0.000012 -0.194411 0.462976 22.778600 40.985400 -0.000006 -0.000013 -6.613770 -1.617490 -64.239200 11.754300 -0.000000 0.000003 -0.000128 -0.001270 -16.626000 -2.192510 6.469440 -0.000001 172.886000 21.074500 -178.740000 -39.081100 -0.002282 -0.040193 -0.022940 0.071908 20.062300 -40.985400 0.000008 0.000006 -3.147770 1.830650 -63.935800 -11.754300 -0.000006 -0.000006 -0.004276 -0.054280 -18.781200
0.000000 0.000000 0.000000 0.000000 0.000000 -0.000000 -0.720665 91.930300 1.855790 88.151900 -0.670714 5.044880 15.735700 0.000005 -0.000001 79.101800 87.068500 -78.709900 8.984550 -0.406207 -0.000000 -2.004880 -1.141600 0.763583 16.377300 -0.000001 -0.000001 -0.533987 -2.058070 0.051892 6.456720 -0.000001 -0.000000 -0.700469 -2.534350 1.185070 12.994200 -0.242716 4.980390 -86.129100 -8.109410 -64.374600 5.348090 -0.000007 -0.000001 -52.726200 -47.744900 -50.110100 24.328600 0.000019 0.000005 -1.733960 -3.061640 -29.542800 22.291600 -0.000001 0.000005 17.413700 5.511080 -6.985440 12.994500 -0.242716 -4.980390 91.128600 -2.583800 -66.393700 -5.348130 -0.000001 -0.000004 -60.462600 -48.037800 -66.580400 -24.328900 0.000322 -0.000009 -1.295350 -3.051950 -22.994200 -22.291500 -0.000108 -0.000004 15.166400 5.182030 3.166350 -2.192480 -6.469440 -0.000000 -169.200000 -17.213500 -1.256430 39.081100 -0.000007 -0.000012 -0.195135 0.463531 22.830200 40.985400 -0.000006 -0.000013 -6.650470 -1.705350 -64.381900 11.754300 -0.000000 0.000003 -0.000120 -0.001206 -16.623600 -2.192510 6.469440 -0.000001 172.805000 20.933400 -178.614000 -39.081100 -0.002282 -0.040193 -0.020538 0.064969 20.165000 -40.985400 0.000008 0.000006 -3.104470 1.869900 -64.040000 -11.754300 -0.000006 -0.000006 -0.004216 -0.053669 -18.756300
0.000000 0.000000 0.000000 0.000000 0.000000 -0.000000 -0.679340 91.913700 1.981460 88.154600 -0.907197 5.157160 15.735700 0.000005 -0.000001 78.613500 87.130800 -78.148400 8.984550 -0.406207 -0.000000 -2.135800 -1.172770 0.908302 16.377300 -0.000001 -0.000001 -0.563982 -1.859680 0.026464 6.456720 -0.000001 -0.000000 -0.719974 -2.328580 0.961902 12.994200 -0.242716 4.980390 -85.990700 -8.363570 -64.271800 5.348090 -0.000007 -0.000001 -52.843700 -48.072600 -53.469400 24.328600 0.000019 0.000005 -2.328910 -3.879120 -31.010400 22.291600 -0.000001 0.000005 18.001900 5.524980 -7.573150 12.994500 -0.242716 -4.980390 91.308400 -3.006540 -66.467400 -5.348130 -0.000001 -0.000004 -60.293400 -47.382000 -70.276300 -24.328900 0.000322 -0.000009 -1.466910 -3.210980 -24.552200 -22.291500 -0.000108 -0.000004 15.509000 5.201960 2.670370 -2.192480 -6.469440 -0.000000 -169.140000 -17.403200 -1.015940 39.081100 -0.000007 -0.000012 -0.196112 0.464472 22.891000 40.985400 -0.000006 -0.000013 -6.665660 -1.751080 -64.524700 11.754300 -0.000000 0.000003 -0.000132 -0.001301 -16.627200 -2.192510 6.469440 -0.000001 172.727000 20.758200 -178.474000 -39.081100 -0.002282 -0.040193 -0.018553 0.059367 20.226700 -40.985400 0.000008 0.000006 -3.006620 1.957280 -64.133600 -11.754300 -0.000006 -0.000006 -0.004267 -0.054185 -18.777300
